<?xml version="1.0" encoding="UTF-8" standalone="no"?>
<!DOCTYPE svg PUBLIC "-//W3C//DTD SVG 1.1//EN" "http://www.w3.org/Graphics/SVG/1.1/DTD/svg11.dtd">
<svg width="100%" height="100%" viewBox="0 0 2157 798" version="1.1" xmlns="http://www.w3.org/2000/svg" xmlns:xlink="http://www.w3.org/1999/xlink" xml:space="preserve" xmlns:serif="http://www.serif.com/" style="fill-rule:evenodd;clip-rule:evenodd;stroke-linecap:round;stroke-linejoin:round;stroke-miterlimit:1.5;">
    <g transform="matrix(1,0,0,1,-121.765375,-51)">
        <g id="Logo">
            <g id="Outer-Backing" serif:id="Outer Backing">
                <path d="M456,92L527,92C542.754,94.021 547.518,104.369 542.546,122.093L451,374L470,374L520,251C536.928,224.672 561.276,209.919 591.511,204.347L809.857,204.269C832.457,208.91 849.135,220.931 859.154,241.25C871.64,223.768 889.8,212.234 911.331,204.232L1467.59,204.032C1485.288,204.785 1500.806,212.801 1509.592,224.278C1518.087,235.376 1525.976,252.042 1522.512,272.013L1464.849,416.951C1464.94,420.359 1466.381,420.992 1469.562,418.588L1556,204L1597,99C1611.301,78.107 1631.427,61.182 1661.568,51.078L1699,51C1712.879,54.463 1717.304,63.15 1712.45,76.966L1595,379C1723.09,400.42 1761.863,453.781 1714,538L1784,739C1757.26,765.964 1727.457,788.89 1694,807C1655.615,832.463 1611.187,845.59 1562,849L215,847C51.777,809.569 127.283,653.842 255,645C240.126,632.781 234.429,615.964 241,593L272,511C287.713,489.252 308.969,476.537 337.881,476.298C321.418,466.003 314.047,446.519 317.598,415.997L433.724,112.055C437.371,100.003 444.635,93.088 456,92Z" style="fill:rgb(31,5,38);"/>
                <path d="M1884,718C1878.169,730.557 1882.013,738.166 1892,741L2225,741C2234.265,738.28 2240.123,734.161 2241,728L2277,641C2280.011,623.199 2276.675,607.606 2259,597C2250.996,592.596 2242.347,589.206 2233,589L2054,589L2066,559C2067.614,547.231 2063.536,540.14 2051,540L1995,540C1965.225,544.776 1945.346,560.54 1936,588" style="fill:rgb(31,5,38);"/>
            </g>
            <g id="Mic">
                <g id="Mic-Head-background" serif:id="Mic Head background" transform="matrix(1.106061,0,0,1.13,-200.30303,-77.86)">
                    <ellipse cx="1799" cy="622" rx="99" ry="100" style="fill:rgb(31,5,38);"/>
                </g>
                <path id="Mic-Base-1" serif:id="Mic Base 1" d="M1696.598,705.184C1697.152,704.243 1698.132,703.632 1699.221,703.549C1700.31,703.465 1701.371,703.92 1702.061,704.766C1711.266,715.728 1723.708,724.727 1739,732C1727.032,747.776 1713.522,761.903 1698.379,774.284C1696.308,775.965 1693.436,776.253 1691.073,775.017C1677.067,767.632 1664.828,757.703 1655.147,744.083C1651.955,739.581 1652.168,733.501 1655.667,729.235C1668.263,713.736 1679.015,697.312 1688,680C1689.695,684.938 1691.844,689.601 1694.429,694C1695.679,696.098 1695.7,698.707 1694.482,700.825C1691.577,706.003 1688.442,711.442 1684.689,715.202C1683.909,715.984 1683.911,717.251 1684.692,718.031C1685.473,718.81 1686.74,718.809 1687.52,718.028C1690.926,714.615 1693.877,709.902 1696.598,705.184Z" style="fill:rgb(180,58,226);"/>
                <path id="Mic-Base-2" serif:id="Mic Base 2" d="M1691,666C1697.746,701.128 1719.961,721.285 1754,730C1744.989,737.958 1732.69,748.965 1734,756C1747.815,746.523 1759.678,736.268 1769,725C1734.991,712.381 1708.594,693.063 1691,666Z" style="fill:rgb(180,58,226);"/>
                <g id="Mic-Head" serif:id="Mic Head" transform="matrix(1.419847,0,0,1.293706,-743.877863,-203.237762)">
                    <ellipse cx="1782.5" cy="637.5" rx="65.5" ry="71.5" style="fill:rgb(199,247,42);"/>
                    <clipPath id="_clip1">
                        <ellipse cx="1782.5" cy="637.5" rx="65.5" ry="71.5"/>
                    </clipPath>
                    <g clip-path="url(#_clip1)">
                        <g id="Mic-mesh" serif:id="Mic mesh">
                            <g transform="matrix(0.704301,0,0,0.772973,484.473118,174.875676)">
                                <path d="M1688,327C1856.862,407.778 1951.51,610.1 1834,888" style="fill:none;stroke:black;stroke-width:8.33px;"/>
                            </g>
                            <g transform="matrix(0.704301,0,0,0.772973,470.387097,182.605405)">
                                <path d="M1688,327C1856.862,407.778 1951.51,610.1 1834,888" style="fill:none;stroke:black;stroke-width:8.33px;"/>
                            </g>
                            <g transform="matrix(0.704301,0,0,0.772973,456.301075,198.064865)">
                                <path d="M1688,327C1856.862,407.778 1951.51,610.1 1834,888" style="fill:none;stroke:black;stroke-width:8.33px;"/>
                            </g>
                            <g transform="matrix(0.704301,0,0,0.772973,442.215054,213.524324)">
                                <path d="M1688,327C1856.862,407.778 1951.51,610.1 1834,888" style="fill:none;stroke:black;stroke-width:8.33px;"/>
                            </g>
                            <g transform="matrix(0.704301,0,0,0.772973,428.129032,228.983784)">
                                <path d="M1688,327C1856.862,407.778 1951.51,610.1 1834,888" style="fill:none;stroke:black;stroke-width:8.33px;"/>
                            </g>
                            <g transform="matrix(0.704301,0,0,0.772973,414.043011,244.443243)">
                                <path d="M1688,327C1856.862,407.778 1951.51,610.1 1834,888" style="fill:none;stroke:black;stroke-width:8.33px;"/>
                            </g>
                            <g transform="matrix(0.704301,0,0,0.772973,498.55914,136.227027)">
                                <path d="M1688,327C1856.862,407.778 1951.51,610.1 1834,888" style="fill:none;stroke:black;stroke-width:8.33px;"/>
                            </g>
                            <g transform="matrix(0.704301,0,0,0.772973,498.55914,136.227027)">
                                <path d="M1688,327C1856.862,407.778 1951.51,610.1 1834,888" style="fill:none;stroke:black;stroke-width:8.33px;"/>
                            </g>
                            <g transform="matrix(0.704301,0,0,0.772973,498.55914,136.227027)">
                                <path d="M1688,327C1856.862,407.778 1951.51,610.1 1834,888" style="fill:none;stroke:black;stroke-width:8.33px;"/>
                            </g>
                            <g transform="matrix(0.704301,0,0,0.772973,498.55914,136.227027)">
                                <path d="M1688,327C1856.862,407.778 1951.51,610.1 1834,888" style="fill:none;stroke:black;stroke-width:8.33px;"/>
                            </g>
                            <g transform="matrix(0.704301,0,0,0.772973,498.55914,136.227027)">
                                <path d="M1688,327C1856.862,407.778 1951.51,610.1 1834,888" style="fill:none;stroke:black;stroke-width:8.33px;"/>
                            </g>
                            <g transform="matrix(0.704301,0,0,0.772973,498.55914,136.227027)">
                                <path d="M1688,327C1856.862,407.778 1951.51,610.1 1834,888" style="fill:none;stroke:black;stroke-width:8.33px;"/>
                            </g>
                            <g transform="matrix(0.704301,0,0,0.772973,498.55914,136.227027)">
                                <path d="M1688,327C1856.862,407.778 1951.51,610.1 1834,888" style="fill:none;stroke:black;stroke-width:8.33px;"/>
                            </g>
                            <g transform="matrix(0.704301,0,0,0.772973,498.55914,136.227027)">
                                <path d="M1688,327C1856.862,407.778 1951.51,610.1 1834,888" style="fill:none;stroke:black;stroke-width:8.33px;"/>
                            </g>
                            <g transform="matrix(0.704301,0,0,0.772973,498.55914,136.227027)">
                                <path d="M1688,327C1856.862,407.778 1951.51,610.1 1834,888" style="fill:none;stroke:black;stroke-width:8.33px;"/>
                            </g>
                            <g transform="matrix(0.704301,0,0,0.772973,498.55914,136.227027)">
                                <path d="M1688,327C1856.862,407.778 1951.51,610.1 1834,888" style="fill:none;stroke:black;stroke-width:8.33px;"/>
                            </g>
                            <g transform="matrix(0.704301,0,0,0.772973,498.55914,136.227027)">
                                <path d="M1688,327C1856.862,407.778 1951.51,610.1 1834,888" style="fill:none;stroke:black;stroke-width:8.33px;"/>
                            </g>
                            <g transform="matrix(0.704301,0,0,0.772973,498.55914,136.227027)">
                                <path d="M1688,327C1856.862,407.778 1951.51,610.1 1834,888" style="fill:none;stroke:black;stroke-width:8.33px;"/>
                            </g>
                            <g transform="matrix(0.704301,0,0,0.772973,498.55914,136.227027)">
                                <path d="M1688,327C1856.862,407.778 1951.51,610.1 1834,888" style="fill:none;stroke:black;stroke-width:8.33px;"/>
                            </g>
                            <g transform="matrix(0.704301,0,0,0.772973,498.55914,136.227027)">
                                <path d="M1688,327C1856.862,407.778 1951.51,610.1 1834,888" style="fill:none;stroke:black;stroke-width:8.33px;"/>
                            </g>
                            <g transform="matrix(0.704301,0,0,0.772973,498.55914,136.227027)">
                                <path d="M1688,327C1856.862,407.778 1951.51,610.1 1834,888" style="fill:none;stroke:black;stroke-width:8.33px;"/>
                            </g>
                            <g transform="matrix(0.704301,0,0,0.772973,498.55914,136.227027)">
                                <path d="M1688,327C1856.862,407.778 1951.51,610.1 1834,888" style="fill:none;stroke:black;stroke-width:8.33px;"/>
                            </g>
                            <g transform="matrix(0.704301,0,0,0.772973,498.55914,136.227027)">
                                <path d="M1688,327C1856.862,407.778 1951.51,610.1 1834,888" style="fill:none;stroke:black;stroke-width:8.33px;"/>
                            </g>
                            <g transform="matrix(0.704301,0,0,0.772973,498.55914,136.227027)">
                                <path d="M1688,327C1856.862,407.778 1951.51,610.1 1834,888" style="fill:none;stroke:black;stroke-width:8.33px;"/>
                            </g>
                            <g transform="matrix(0.704301,0,0,0.772973,498.55914,136.227027)">
                                <path d="M1688,327C1856.862,407.778 1951.51,610.1 1834,888" style="fill:none;stroke:black;stroke-width:8.33px;"/>
                            </g>
                            <g transform="matrix(0.704301,0,0,0.772973,498.55914,136.227027)">
                                <path d="M1688,327C1856.862,407.778 1951.51,610.1 1834,888" style="fill:none;stroke:black;stroke-width:8.33px;"/>
                            </g>
                            <g transform="matrix(0.704301,0,0,0.772973,512.645161,120.767568)">
                                <path d="M1688,327C1856.862,407.778 1951.51,610.1 1834,888" style="fill:none;stroke:black;stroke-width:8.33px;"/>
                            </g>
                            <g transform="matrix(-0.284771,-0.687901,-0.641223,0.319736,2723.301957,1671.846166)">
                                <path d="M1688,327C1856.862,407.778 1951.51,610.1 1834,888" style="fill:none;stroke:black;stroke-width:8.43px;"/>
                            </g>
                            <g transform="matrix(-0.284771,-0.687901,-0.641223,0.319736,2737.387978,1687.305625)">
                                <path d="M1688,327C1856.862,407.778 1951.51,610.1 1834,888" style="fill:none;stroke:black;stroke-width:8.43px;"/>
                            </g>
                            <g transform="matrix(-0.284771,-0.687901,-0.641223,0.319736,2751.474,1702.765085)">
                                <path d="M1688,327C1856.862,407.778 1951.51,610.1 1834,888" style="fill:none;stroke:black;stroke-width:8.43px;"/>
                            </g>
                            <g transform="matrix(-0.284771,-0.687901,-0.641223,0.319736,2765.560021,1718.224544)">
                                <path d="M1688,327C1856.862,407.778 1951.51,610.1 1834,888" style="fill:none;stroke:black;stroke-width:8.43px;"/>
                            </g>
                            <g transform="matrix(-0.284771,-0.687901,-0.641223,0.319736,2779.646043,1733.684004)">
                                <path d="M1688,327C1856.862,407.778 1951.51,610.1 1834,888" style="fill:none;stroke:black;stroke-width:8.43px;"/>
                            </g>
                            <g transform="matrix(-0.284771,-0.687901,-0.641223,0.319736,2793.732064,1749.143463)">
                                <path d="M1688,327C1856.862,407.778 1951.51,610.1 1834,888" style="fill:none;stroke:black;stroke-width:8.43px;"/>
                            </g>
                            <g transform="matrix(-0.284771,-0.687901,-0.641223,0.319736,2807.818086,1764.602923)">
                                <path d="M1688,327C1856.862,407.778 1951.51,610.1 1834,888" style="fill:none;stroke:black;stroke-width:8.43px;"/>
                            </g>
                        </g>
                        <g id="Mic-band" serif:id="Mic band" transform="matrix(0.523723,0.516823,-0.351572,0.429127,1060.175563,-552.864351)">
                            <path d="M1920,600L1920,641C1832.835,659.755 1749.862,659.846 1671,641L1671,600C1751.579,624.75 1834.498,623.993 1920,600Z" style="fill:rgb(199,247,42);stroke:black;stroke-width:9.44px;"/>
                        </g>
                    </g>
                    <ellipse cx="1782.5" cy="637.5" rx="65.5" ry="71.5" style="fill:none;stroke:black;stroke-width:6.14px;"/>
                </g>
            </g>
            <g id="Text">
                <g id="scene-fm" serif:id="scene fm">
                    <g id="fm">
                        <path id="m" d="M1995,725L2043,605L2236.653,605C2243.875,605 2250.62,608.604 2254.635,614.607C2258.65,620.61 2259.405,628.221 2256.646,634.896C2241.84,670.727 2219,726 2219,726L2180,726C2180,726 2207.359,658.322 2215.648,637.818C2216.175,636.513 2216.02,635.032 2215.233,633.866C2214.447,632.699 2213.132,632 2211.725,632C2198.095,632 2167,632 2167,632L2129,725L2090,725C2090,725 2116.451,660.266 2125.216,638.814C2125.839,637.289 2125.662,635.554 2124.743,634.187C2123.825,632.82 2122.286,632 2120.64,632C2106.08,632 2075,632 2075,632L2037,725L1995,725Z" style="fill:url(#_Linear2);"/>
                        <path id="f" d="M1904,724C1904,724 1936.935,640.165 1956.274,590.939C1964.555,569.861 1984.892,556 2007.538,556L2049,556L2038,580L2007.459,580C2002.968,580 1998.943,582.773 1997.345,586.97C1995.016,593.082 1992,601 1992,601L2031,601L2018,634L1981,634L1945,725L1904,724Z" style="fill:url(#_Linear3);"/>
                    </g>
                    <g id="scene">
                        <g id="e" transform="matrix(1,0,0,1,542,0)">
                            <path d="M1028.562,660C1035.612,660 1042.099,656.147 1045.471,649.955C1045.471,649.955 1045.471,649.955 1045.471,649.955L1098.966,649.822C1098.966,649.822 1094.757,659.48 1089.606,671.303C1078.306,697.233 1052.711,714 1024.425,714L775.381,714C763.229,714 751.846,708.05 744.909,698.073C737.972,688.095 736.36,675.353 740.592,663.961C756.039,622.388 777.569,564.445 790.878,528.624C798.165,509.012 816.881,496 837.804,496C879.103,496 948.237,496 994.949,496C1006.117,496 1016.578,501.467 1022.955,510.636C1029.332,519.805 1030.816,531.515 1026.93,541.985C1019.742,561.349 1011.611,583.252 1005.353,600.109C999.13,616.875 983.133,628 965.249,628L836,628C836,628 842.24,613.079 848.159,598.924C854.472,583.828 869.234,574 885.597,574C911.92,574 948,574 948,574C948,574 948.139,573.996 948.392,573.988C957.597,573.698 964.92,566.171 964.955,556.961C964.963,554.809 964.971,552.728 964.978,550.922C964.983,549.358 964.363,547.857 963.255,546.753C962.146,545.65 960.642,545.036 959.078,545.049C940.617,545.203 883.807,545.677 857.998,545.892C850.142,545.957 843.112,550.783 840.227,558.091C831.727,579.625 814.033,624.45 805.221,646.774C804.045,649.753 804.419,653.12 806.221,655.768C808.022,658.415 811.017,660 814.219,660C857.803,660 988.97,660 1028.562,660Z" style="fill:url(#_Linear4);"/>
                        </g>
                        <path id="n" d="M989,715L1071,496L1269.666,496C1280.382,496 1290.411,501.276 1296.481,510.106C1302.552,518.936 1303.886,530.189 1300.049,540.195C1275.511,604.168 1233,715 1233,715L1169,715C1169,715 1214.199,598.178 1229.215,559.367C1230.297,556.572 1229.93,553.423 1228.236,550.95C1226.542,548.478 1223.737,547 1220.74,547C1197.12,547 1148.1,547 1125.236,547C1117.876,547 1111.288,551.566 1108.703,558.457C1094.507,596.316 1050,715 1050,715L989,715Z" style="fill:url(#_Linear5);"/>
                        <path id="e1" serif:id="e" d="M984,660L965,714L775.381,714C763.229,714 751.846,708.05 744.909,698.073C737.972,688.095 736.36,675.353 740.592,663.961C756.039,622.388 777.569,564.445 790.878,528.624C798.165,509.012 816.881,496 837.804,496C879.103,496 948.237,496 994.949,496C1006.117,496 1016.578,501.467 1022.955,510.636C1029.332,519.805 1030.816,531.515 1026.93,541.985C1019.742,561.349 1011.611,583.252 1005.353,600.109C999.13,616.875 983.133,628 965.249,628C919.223,628 836,628 836,628C836,628 842.24,613.079 848.159,598.924C854.472,583.828 869.234,574 885.597,574C911.92,574 948,574 948,574C948,574 948.139,573.996 948.392,573.988C957.597,573.698 964.92,566.171 964.955,556.961C964.963,554.809 964.971,552.728 964.978,550.922C964.983,549.358 964.363,547.857 963.255,546.753C962.146,545.65 960.642,545.036 959.078,545.049C940.617,545.203 883.807,545.677 857.998,545.892C850.142,545.957 843.112,550.783 840.227,558.091C831.727,579.625 814.033,624.45 805.221,646.774C804.045,649.753 804.419,653.12 806.221,655.768C808.022,658.415 811.017,660 814.219,660C857.388,660 984,660 984,660Z" style="fill:url(#_Linear6);"/>
                        <path id="c" d="M777,499L757,548L610.709,548C602.431,548 594.991,553.046 591.928,560.736C583.79,581.171 567.811,621.296 558.729,644.103C557.216,647.902 557.684,652.204 559.98,655.589C562.275,658.973 566.098,661 570.188,661C613.66,661 720,661 720,661L698,714L524.707,714C512.995,714 502.034,708.237 495.394,698.589C488.755,688.941 487.288,676.644 491.472,665.705C506.827,625.562 528.335,569.329 542.218,533.032C550.504,511.369 571.383,497.139 594.576,497.349C657.914,497.922 777,499 777,499Z" style="fill:url(#_Linear7);"/>
                        <path id="s_" d="M524,497L339.186,497C315.619,497 294.528,511.629 286.271,533.703C280.415,549.36 273.533,567.758 267.411,584.127C263.679,594.103 265.074,605.275 271.145,614.027C277.216,622.779 287.19,628 297.842,628L411.437,628C414.677,628 417.734,629.504 419.71,632.072C421.686,634.639 422.358,637.979 421.529,641.111C421.107,642.707 420.672,644.351 420.24,645.982C417.733,655.452 409.227,662.094 399.432,662.23C361.579,662.756 272,664 272,664C102.235,678.847 114.228,828.023 232,829L1570,830C1618.764,823.972 1658.261,808.479 1687,782C1671.396,774.611 1659.157,764.878 1650,753C1627.673,773.407 1599.57,783.638 1567,786L210,786C153.145,776.54 185.131,716.363 241,714L404.167,714C429.409,714 452.084,698.565 461.34,675.081C468.168,657.758 476.227,637.312 483.216,619.582C486.997,609.99 485.787,599.148 479.985,590.624C474.183,582.101 464.54,577 454.229,577C416.095,577 364.213,577 339.789,577C336.624,577 333.656,575.464 331.83,572.879C330.003,570.295 329.545,566.985 330.601,564.002C331.431,561.657 332.289,559.232 333.097,556.95C335.433,550.349 341.695,545.953 348.698,545.998C386.662,546.243 504,547 504,547L524,497Z" style="fill:url(#_Linear8);"/>
                    </g>
                </g>
                <g id="local">
                    <path id="l" d="M1687,75L1668.528,75C1644.105,75 1622.197,90.023 1613.398,112.806C1587.512,179.825 1533.478,319.722 1503.39,397.621C1498.553,410.143 1500.2,424.243 1507.791,435.313C1515.383,446.383 1527.943,453 1541.366,453C1564.459,453 1590.795,453 1613.597,453C1626.132,453 1637.834,459.282 1644.76,469.731C1651.686,480.179 1652.915,493.404 1648.033,504.95C1626.217,556.541 1596,628 1596,628L1650,628C1650,628 1678.104,560.617 1701.605,504.271C1709.259,485.921 1708.193,465.092 1698.707,447.619C1689.22,430.145 1672.332,417.906 1652.774,414.33C1629.448,410.065 1605.427,405.672 1587.405,402.377C1580.191,401.058 1573.952,396.569 1570.408,390.15C1566.864,383.73 1566.39,376.059 1569.117,369.252C1600.413,291.133 1687,75 1687,75Z" style="fill:url(#_Linear9);"/>
                    <path id="a" d="M1172.824,280L1417.844,280C1420.595,280 1423.172,281.344 1424.747,283.599C1426.322,285.854 1426.697,288.736 1425.75,291.319C1423.039,298.711 1420,307 1420,307L1215.342,307C1181.52,307 1151.316,328.169 1139.775,359.96C1134.833,373.572 1129.526,388.191 1124.617,401.717C1120.362,413.438 1122.089,426.497 1129.246,436.708C1136.402,446.92 1148.088,453 1160.558,453L1403.603,453C1415.295,453 1425.785,445.816 1430.011,434.914C1443.739,399.503 1474.512,320.121 1493.925,270.045C1497.783,260.093 1496.484,248.878 1490.453,240.071C1484.422,231.265 1474.435,226 1463.761,226C1375.41,226 1194,226 1194,226L1172.824,280Z" style="fill:url(#_Linear10);"/>
                    <clipPath id="_clip11">
                        <path id="a1" serif:id="a" d="M1172.824,280L1417.844,280C1420.595,280 1423.172,281.344 1424.747,283.599C1426.322,285.854 1426.697,288.736 1425.75,291.319C1423.039,298.711 1420,307 1420,307L1215.342,307C1181.52,307 1151.316,328.169 1139.775,359.96C1134.833,373.572 1129.526,388.191 1124.617,401.717C1120.362,413.438 1122.089,426.497 1129.246,436.708C1136.402,446.92 1148.088,453 1160.558,453L1403.603,453C1415.295,453 1425.785,445.816 1430.011,434.914C1443.739,399.503 1474.512,320.121 1493.925,270.045C1497.783,260.093 1496.484,248.878 1490.453,240.071C1484.422,231.265 1474.435,226 1463.761,226C1375.41,226 1194,226 1194,226L1172.824,280Z"/>
                    </clipPath>
                    <g clip-path="url(#_clip11)">
                        <path id="a-inner-shape" serif:id="a inner shape" d="M1397,359L1218.699,359C1210.393,359 1202.891,363.963 1199.642,371.608C1197.846,375.833 1195.833,380.57 1193.992,384.902C1192.661,388.032 1192.99,391.621 1194.867,394.457C1196.743,397.294 1199.917,399 1203.319,399L1373.6,399C1379.23,399 1384.245,395.442 1386.105,390.128C1390.23,378.344 1397,359 1397,359Z" style="fill:rgb(31,5,38);"/>
                    </g>
                    <path id="c1" serif:id="c" d="M1166,226L1146,277L956.348,277C936.842,277 919.332,288.963 912.24,307.135C904.01,328.224 893.158,356.032 885.481,375.704C883.341,381.187 884.048,387.374 887.368,392.233C890.688,397.093 896.194,400 902.08,400C960.742,400 1098,400 1098,400L1077,454L852.454,454C839.904,454 828.159,447.819 821.053,437.475C813.946,427.131 812.39,413.951 816.892,402.236C831.886,363.217 852.284,310.135 866.84,272.258C877.773,243.808 905.148,225.072 935.627,225.18C1016.544,225.468 1166,226 1166,226Z" style="fill:url(#_Linear12);"/>
                    <path id="lo" d="M460.708,115C459.678,115 458.754,115.632 458.381,116.592C449.331,139.887 344,411 344,411C341.486,434.609 351.74,447.734 374,451L715,452C741.644,447.306 762.369,433.902 778,413L831,274C834.166,266.424 834.619,258.026 833,249C828.429,239.172 822.486,232.698 815,230C807.667,226.677 800.333,225.278 793,225L600,225C587.479,226.581 575.474,230.561 564,237C553.895,243.433 546.298,251.821 541,262L488,398L428,398C421.04,397.137 417.434,394.437 417,390C416.154,388.246 416.88,384.295 420,377C420,377 506.979,149.116 518.699,118.408C518.994,117.636 518.89,116.768 518.421,116.087C517.953,115.407 517.179,115 516.352,115C504.747,115 468.957,115 460.708,115Z" style="fill:url(#_Linear13);"/>
                    <clipPath id="_clip14">
                        <path id="lo1" serif:id="lo" d="M460.708,115C459.678,115 458.754,115.632 458.381,116.592C449.331,139.887 344,411 344,411C341.486,434.609 351.74,447.734 374,451L715,452C741.644,447.306 762.369,433.902 778,413L831,274C834.166,266.424 834.619,258.026 833,249C828.429,239.172 822.486,232.698 815,230C807.667,226.677 800.333,225.278 793,225L600,225C587.479,226.581 575.474,230.561 564,237C553.895,243.433 546.298,251.821 541,262L488,398L428,398C421.04,397.137 417.434,394.437 417,390C416.154,388.246 416.88,384.295 420,377C420,377 506.979,149.116 518.699,118.408C518.994,117.636 518.89,116.768 518.421,116.087C517.953,115.407 517.179,115 516.352,115C504.747,115 468.957,115 460.708,115Z"/>
                    </clipPath>
                    <g clip-path="url(#_clip14)">
                        <path id="lo-inner-shape" serif:id="lo inner shape" d="M485,376L559,376C559,376 576.559,328.201 587.151,299.368C591.866,286.531 604.089,278 617.764,278C652.412,278 717.67,278 749.138,278C753.16,278 756.922,279.991 759.184,283.317C761.446,286.642 761.916,290.872 760.438,294.613C751.546,317.129 735.749,357.126 726.757,379.893C722.676,390.225 712.716,397.031 701.607,397.078C646.253,397.314 485,398 485,398L485,376Z" style="fill:rgb(31,5,38);"/>
                    </g>
                </g>
            </g>
        </g>
    </g>
    <defs>
        <linearGradient id="_Linear2" x1="0" y1="0" x2="1" y2="0" gradientUnits="userSpaceOnUse" gradientTransform="matrix(2106,531,-531,2106,141,429)"><stop offset="0" style="stop-color:rgb(217,91,255);stop-opacity:1"/><stop offset="1" style="stop-color:rgb(141,43,185);stop-opacity:1"/></linearGradient>
        <linearGradient id="_Linear3" x1="0" y1="0" x2="1" y2="0" gradientUnits="userSpaceOnUse" gradientTransform="matrix(2106,531,-531,2106,141,429)"><stop offset="0" style="stop-color:rgb(217,91,255);stop-opacity:1"/><stop offset="1" style="stop-color:rgb(141,43,185);stop-opacity:1"/></linearGradient>
        <linearGradient id="_Linear4" x1="0" y1="0" x2="1" y2="0" gradientUnits="userSpaceOnUse" gradientTransform="matrix(2106,531,-531,2106,-401,429)"><stop offset="0" style="stop-color:rgb(217,91,255);stop-opacity:1"/><stop offset="1" style="stop-color:rgb(141,43,185);stop-opacity:1"/></linearGradient>
        <linearGradient id="_Linear5" x1="0" y1="0" x2="1" y2="0" gradientUnits="userSpaceOnUse" gradientTransform="matrix(2106,531,-531,2106,141,429)"><stop offset="0" style="stop-color:rgb(217,91,255);stop-opacity:1"/><stop offset="1" style="stop-color:rgb(141,43,185);stop-opacity:1"/></linearGradient>
        <linearGradient id="_Linear6" x1="0" y1="0" x2="1" y2="0" gradientUnits="userSpaceOnUse" gradientTransform="matrix(2106,531,-531,2106,141,429)"><stop offset="0" style="stop-color:rgb(217,91,255);stop-opacity:1"/><stop offset="1" style="stop-color:rgb(141,43,185);stop-opacity:1"/></linearGradient>
        <linearGradient id="_Linear7" x1="0" y1="0" x2="1" y2="0" gradientUnits="userSpaceOnUse" gradientTransform="matrix(2106,531,-531,2106,141,429)"><stop offset="0" style="stop-color:rgb(217,91,255);stop-opacity:1"/><stop offset="1" style="stop-color:rgb(141,43,185);stop-opacity:1"/></linearGradient>
        <linearGradient id="_Linear8" x1="0" y1="0" x2="1" y2="0" gradientUnits="userSpaceOnUse" gradientTransform="matrix(2106,531,-531,2106,141,429)"><stop offset="0" style="stop-color:rgb(217,91,255);stop-opacity:1"/><stop offset="1" style="stop-color:rgb(141,43,185);stop-opacity:1"/></linearGradient>
        <linearGradient id="_Linear9" x1="0" y1="0" x2="1" y2="0" gradientUnits="userSpaceOnUse" gradientTransform="matrix(1363,555,-555,1363,336,71)"><stop offset="0" style="stop-color:rgb(224,255,52);stop-opacity:1"/><stop offset="1" style="stop-color:rgb(169,214,31);stop-opacity:1"/></linearGradient>
        <linearGradient id="_Linear10" x1="0" y1="0" x2="1" y2="0" gradientUnits="userSpaceOnUse" gradientTransform="matrix(1363,555,-555,1363,336,71)"><stop offset="0" style="stop-color:rgb(224,255,52);stop-opacity:1"/><stop offset="1" style="stop-color:rgb(169,214,31);stop-opacity:1"/></linearGradient>
        <linearGradient id="_Linear12" x1="0" y1="0" x2="1" y2="0" gradientUnits="userSpaceOnUse" gradientTransform="matrix(1363,555,-555,1363,336,71)"><stop offset="0" style="stop-color:rgb(224,255,52);stop-opacity:1"/><stop offset="1" style="stop-color:rgb(169,214,31);stop-opacity:1"/></linearGradient>
        <linearGradient id="_Linear13" x1="0" y1="0" x2="1" y2="0" gradientUnits="userSpaceOnUse" gradientTransform="matrix(1363,555,-555,1363,336,71)"><stop offset="0" style="stop-color:rgb(224,255,52);stop-opacity:1"/><stop offset="1" style="stop-color:rgb(169,214,31);stop-opacity:1"/></linearGradient>
    </defs>
</svg>
